# xmcd
#
# Track frame offsets:
#	150
#	26491
#	38417
#	51111
#	62674
#	76595
#	90476
#	104559
#	115293
#	127167
#	138958
#	149209
#	160848
#	175736
#	187093
#	199996
#	212625
#	226209
#	239489
#	253967
#	265807
#	277932
#	291004
#	304355
#	317425
#
# Disc length: 4400 seconds
#
# Revision: 1
# Processed by: cddbd v1.5.2PL0 Copyright (c) Steve Scherf et al.
# Submitted via: audiograbber 1.83.01
#
DISCID=6f112e19
DTITLE=CD COMPILATION - A Bad Case Of The Blues - CD 1
DYEAR=2011
DGENRE=Blues
TTITLE0=Lightnin' Hopkins, Brownie McGhee, Big Joe Williams, Sonny Terry and Ji
TTITLE0=mmy Bond - Wimmin From Coast To Coast
TTITLE1=Snooks Eaglin - By The Water
TTITLE2=Howlin' Wolf - Forty Four
TTITLE3=Sonny Boy Williamson - Don't Start Me Talking
TTITLE4=Little Walter - You're So Fine
TTITLE5=Jimmy Reed - You Don't Have To Go
TTITLE6=Otis Rush - I Can't Quit You Baby
TTITLE7=Billy Gayles - I'm Tore Up
TTITLE8=Roosevelt Sykes - Night Time Is The Right Time
TTITLE9=Freddy King - Hide Away
TTITLE10=Slim Harpo - Rainin' In My Heart
TTITLE11=Junior Wells - Little By Little
TTITLE12=Lightnin' Hopkins - Mojo Hand
TTITLE13=Bobby Bland - I Smell Trouble
TTITLE14=Muddy Waters - I Live The Life I Love
TTITLE15=Elmore James - The Sky Is Crying
TTITLE16=Lowell Fulson - Loving You (Is All I Crave)
TTITLE17=Sonny Boy Williamson - Mighty Long Time
TTITLE18=Howlin' Wolf - I'll Be Around
TTITLE19=Little Walter - Too Late
TTITLE20=John Lee Hooker - I'm In The Mood
TTITLE21=Muddy Waters - Louisiana Blues
TTITLE22=Tampa Red - Sweet Little Angel
TTITLE23=Brownie McGhee - So Much Trouble
TTITLE24=Memphis Slim - Train Is Comin'
EXTD=
EXTT0=
EXTT1=
EXTT2=
EXTT3=
EXTT4=
EXTT5=
EXTT6=
EXTT7=
EXTT8=
EXTT9=
EXTT10=
EXTT11=
EXTT12=
EXTT13=
EXTT14=
EXTT15=
EXTT16=
EXTT17=
EXTT18=
EXTT19=
EXTT20=
EXTT21=
EXTT22=
EXTT23=
EXTT24=
PLAYORDER=
